name Walk10.mot
datacolumns 19
datarows 10
range 3.53500000 3.54400000
endheader

                time	   L_ground_force_vx	   L_ground_force_vy	   L_ground_force_vz	   L_ground_force_px	   L_ground_force_py	   L_ground_force_pz	   R_ground_force_vx	   R_ground_force_vy	   R_ground_force_vz	   R_ground_force_px	   R_ground_force_py	   R_ground_force_pz	   L_ground_torque_x	   L_ground_torque_y	   L_ground_torque_z	   R_ground_torque_x	   R_ground_torque_y	   R_ground_torque_z	
          3.53500000	          0.03526292	          0.09424033	         -0.00550183	         -0.00012443	          0.00000000	         -0.00006816	        -20.87460395	        667.22559664	        -41.26793979	          0.43474688	          0.00000000	          0.09593064	          0.00000000	         -0.00007311	          0.00000000	          0.00000000	          3.11843969	          0.00000000	
          3.53600000	          0.03266827	          0.08830974	         -0.00550934	         -0.00012143	          0.00000000	         -0.00006684	        -20.64352599	        666.02903172	        -41.18133579	          0.43528511	          0.00000000	          0.09599805	          0.00000000	         -0.00008622	          0.00000000	          0.00000000	          3.07041910	          0.00000000	
          3.53700000	          0.03017079	          0.08254969	         -0.00549539	         -0.00011823	          0.00000000	         -0.00006537	        -20.41608527	        664.86479138	        -41.09592532	          0.43582461	          0.00000000	          0.09606495	          0.00000000	         -0.00009789	          0.00000000	          0.00000000	          3.02323978	          0.00000000	
          3.53800000	          0.02777164	          0.07696744	         -0.00546186	         -0.00011485	          0.00000000	         -0.00006379	        -20.19218258	        663.73338097	        -41.01160163	          0.43636524	          0.00000000	          0.09613132	          0.00000000	         -0.00010819	          0.00000000	          0.00000000	          2.97688878	          0.00000000	
          3.53900000	          0.02547154	          0.07156899	         -0.00541054	         -0.00011133	          0.00000000	         -0.00006210	        -19.97171237	        662.63528374	        -40.92826275	          0.43690685	          0.00000000	          0.09619710	          0.00000000	         -0.00011722	          0.00000000	          0.00000000	          2.93135264	          0.00000000	
          3.54000000	          0.02327074	          0.06635908	         -0.00534314	         -0.00010768	          0.00000000	         -0.00006032	        -19.75456259	        661.57096379	        -40.84581245	          0.43744930	          0.00000000	          0.09626229	          0.00000000	         -0.00012503	          0.00000000	          0.00000000	          2.88661744	          0.00000000	
          3.54100000	          0.02116914	          0.06134139	         -0.00526129	         -0.00010394	          0.00000000	         -0.00005846	        -19.54061498	        660.54086872	        -40.76416116	          0.43799246	          0.00000000	          0.09632683	          0.00000000	         -0.00013170	          0.00000000	          0.00000000	          2.84266880	          0.00000000	
          3.54200000	          0.01916623	          0.05651853	         -0.00516651	         -0.00010012	          0.00000000	         -0.00005654	        -19.32974584	        659.54543153	        -40.68322662	          0.43853619	          0.00000000	          0.09639072	          0.00000000	         -0.00013731	          0.00000000	          0.00000000	          2.79949185	          0.00000000	
          3.54300000	          0.01726119	          0.05189216	         -0.00506026	         -0.00009625	          0.00000000	         -0.00005456	        -19.12182679	        658.58507089	        -40.60293427	          0.43908035	          0.00000000	          0.09645394	          0.00000000	         -0.00014192	          0.00000000	          0.00000000	          2.75707104	          0.00000000	
          3.54400000	          0.01545290	          0.04746306	         -0.00494393	         -0.00009234	          0.00000000	         -0.00005255	        -18.91672573	        657.66018988	        -40.52321746	          0.43962482	          0.00000000	          0.09651646	          0.00000000	         -0.00014561	          0.00000000	          0.00000000	          2.71538987	          0.00000000	
